<?xml version="1.0" standalone="no"?>
<!DOCTYPE svg PUBLIC "-//W3C//DTD SVG 20010904//EN"
 "http://www.w3.org/TR/2001/REC-SVG-20010904/DTD/svg10.dtd">
<svg version="1.0" xmlns="http://www.w3.org/2000/svg"
 width="2784.000000pt" height="2784.000000pt" viewBox="0 0 2784.000000 2784.000000"
 preserveAspectRatio="xMidYMid meet">
<metadata>
Created by potrace 1.14, written by Peter Selinger 2001-2017
</metadata>
<g transform="translate(0.000000,2784.000000) scale(0.100000,-0.100000)"
fill="#000000" stroke="none">
<path d="M7717 17853 c-3 -2 -16 -6 -29 -8 -12 -2 -44 -10 -70 -18 -27 -8 -48
-13 -48 -11 0 3 -8 0 -18 -5 -11 -6 -30 -12 -43 -15 -13 -2 -66 -16 -118 -31
-51 -15 -98 -28 -105 -29 -6 -1 -15 -4 -21 -7 -5 -4 -23 -10 -40 -14 -30 -8
-44 -12 -67 -18 -7 -2 -20 -7 -28 -10 -8 -4 -26 -9 -40 -11 -14 -3 -26 -5 -27
-7 -2 -1 -6 -2 -10 -3 -11 -2 -114 -36 -133 -43 -8 -3 -19 -7 -25 -8 -5 -1
-32 -10 -60 -20 -27 -9 -54 -18 -60 -19 -19 -4 -60 -17 -80 -26 -24 -10 -146
-51 -160 -54 -5 -1 -14 -4 -20 -8 -5 -3 -26 -10 -45 -16 -19 -6 -80 -27 -135
-47 -55 -21 -110 -40 -122 -42 -13 -3 -23 -9 -23 -12 0 -4 -6 -8 -12 -8 -7 0
-44 -12 -83 -27 -38 -15 -99 -39 -135 -53 -36 -14 -76 -30 -90 -35 -14 -5 -38
-16 -53 -24 -16 -8 -33 -14 -39 -14 -5 0 -32 -11 -59 -25 -27 -13 -49 -22 -49
-20 0 2 -26 -8 -57 -22 -32 -13 -71 -31 -88 -38 -129 -56 -188 -81 -240 -105
-33 -15 -82 -38 -110 -50 -27 -13 -93 -43 -145 -67 -52 -25 -96 -44 -97 -44
-1 0 -41 -20 -88 -44 -47 -24 -85 -42 -85 -39 0 3 -6 0 -12 -6 -7 -6 -71 -40
-143 -76 -71 -36 -145 -75 -162 -86 -18 -11 -33 -17 -33 -13 0 4 -12 -3 -26
-14 -15 -12 -30 -21 -35 -21 -4 0 -49 -24 -101 -53 -51 -29 -109 -60 -128 -70
-19 -10 -48 -26 -65 -36 -26 -15 -106 -60 -170 -95 -11 -6 -22 -14 -25 -17 -3
-3 -10 -8 -15 -10 -27 -11 -311 -184 -317 -193 -4 -6 -8 -7 -8 -3 0 4 -6 3
-12 -3 -15 -13 -201 -131 -229 -145 -10 -5 -19 -13 -19 -17 0 -5 -4 -8 -10 -8
-12 0 -291 -186 -470 -313 -74 -53 -143 -102 -154 -109 -10 -7 -24 -17 -30
-23 -6 -5 -43 -33 -82 -61 -38 -28 -79 -58 -90 -67 -10 -9 -82 -64 -159 -123
-77 -59 -169 -132 -205 -162 -36 -29 -74 -61 -85 -70 -137 -114 -213 -177
-226 -191 -9 -9 -27 -25 -40 -35 -41 -33 -156 -136 -373 -336 -39 -36 -195
-189 -346 -340 -247 -247 -366 -371 -502 -524 -23 -27 -53 -60 -66 -74 -12
-14 -41 -48 -65 -76 -23 -27 -49 -57 -57 -66 -8 -8 -31 -36 -50 -60 -19 -25
-39 -50 -45 -56 -6 -6 -28 -34 -50 -62 -21 -29 -43 -52 -47 -52 -4 0 -8 -5 -8
-10 0 -6 -5 -16 -10 -23 -42 -49 -49 -61 -43 -70 3 -5 1 -7 -4 -4 -12 8 -36
-16 -27 -26 8 -7 94 34 94 45 0 4 5 8 11 8 6 0 30 14 54 30 24 17 46 30 49 30
2 0 32 18 65 40 33 22 81 51 107 65 26 14 52 29 59 35 14 12 366 189 416 209
19 8 52 22 74 32 22 9 83 34 135 54 52 20 104 40 115 45 21 9 283 93 300 96 6
1 64 16 130 33 66 16 131 32 145 35 14 3 36 8 50 11 14 3 39 7 55 10 17 3 53
10 80 15 28 5 70 12 95 15 25 3 56 8 70 10 145 26 431 46 670 47 144 1 379 -8
460 -17 19 -2 62 -7 95 -9 33 -3 74 -8 90 -10 17 -2 59 -7 95 -11 36 -4 74 -9
85 -11 11 -3 36 -7 55 -10 35 -5 137 -22 175 -29 160 -28 483 -105 548 -130
20 -8 39 -15 42 -15 3 0 6 0 8 -1 1 0 10 -2 19 -4 21 -4 256 -83 283 -95 11
-5 52 -21 90 -36 176 -67 458 -207 573 -285 24 -16 46 -29 49 -29 3 0 34 -20
70 -45 35 -25 68 -45 73 -45 4 0 10 -4 12 -8 2 -4 21 -21 43 -37 60 -45 65
-49 84 -66 9 -8 27 -22 39 -31 88 -61 305 -276 412 -408 25 -30 47 -57 50 -60
20 -20 70 -91 70 -99 0 -6 4 -11 8 -11 4 0 16 -15 27 -32 10 -18 23 -37 27
-43 5 -5 17 -20 27 -32 31 -39 61 -43 117 -19 28 11 57 26 65 32 8 6 35 19 61
30 27 10 48 22 48 27 0 4 4 7 9 7 5 0 51 20 102 44 125 58 209 96 213 96 2 0
21 8 42 17 22 9 41 17 44 18 3 1 22 9 44 18 21 9 44 17 50 17 7 0 16 4 22 9 7
7 166 64 184 66 3 0 10 3 15 6 11 7 232 76 269 84 6 1 18 5 26 8 13 5 119 33
160 42 8 2 44 10 80 19 36 8 79 17 95 20 45 8 110 23 110 26 0 1 18 3 40 6 22
2 47 6 55 8 32 6 86 16 120 20 19 3 58 7 85 11 28 3 66 9 85 11 19 3 58 7 85
10 28 2 68 6 91 9 224 25 808 25 1054 0 19 -2 67 -6 105 -10 39 -3 84 -8 100
-10 17 -3 51 -7 77 -10 48 -5 148 -19 223 -30 22 -4 74 -13 115 -21 41 -9 84
-17 95 -18 11 -2 40 -8 65 -14 25 -6 56 -13 70 -16 54 -11 74 -16 183 -46 139
-39 261 -77 307 -95 57 -22 74 -28 88 -31 11 -2 91 -32 147 -55 11 -4 61 -24
110 -44 117 -48 138 -57 345 -158 159 -77 388 -201 400 -217 3 -4 12 -9 22
-13 24 -9 272 -178 276 -188 2 -5 8 -9 13 -9 8 0 46 -28 164 -122 200 -160
438 -396 565 -560 8 -11 26 -32 40 -48 14 -15 32 -38 40 -51 8 -12 23 -31 33
-41 9 -10 17 -21 17 -26 0 -4 11 -19 25 -34 14 -15 25 -29 25 -32 0 -2 27 -45
60 -94 33 -50 60 -95 60 -101 0 -5 4 -11 8 -13 17 -7 208 -368 195 -368 -4 0
-3 -4 3 -8 13 -9 64 -119 64 -138 0 -8 5 -14 10 -14 6 0 10 -7 10 -15 0 -8 13
-42 29 -77 15 -35 36 -82 46 -105 10 -24 21 -43 24 -43 6 0 53 112 57 135 12
65 216 501 286 610 14 22 26 43 26 48 1 4 7 13 13 20 6 6 23 31 37 53 78 121
200 283 297 394 56 65 310 315 375 370 118 100 217 179 295 236 11 7 43 31 72
51 28 21 59 44 70 50 10 7 51 35 91 63 41 27 76 50 78 50 3 0 20 11 38 25 18
14 36 25 40 25 5 0 20 8 34 19 56 39 207 121 372 201 69 34 133 65 142 70 25
14 211 92 224 94 7 1 19 8 28 15 9 7 16 11 16 8 0 -4 20 2 44 13 37 16 277 98
311 106 6 2 35 10 65 19 65 19 125 35 160 41 14 3 27 9 28 15 2 5 7 7 11 5 4
-3 57 6 117 20 60 13 123 27 139 29 17 3 53 10 80 15 28 6 66 12 85 15 19 3
44 6 55 9 11 2 45 7 75 11 30 4 64 9 75 11 11 2 47 6 80 9 33 3 80 8 105 10
76 8 192 17 255 20 74 5 593 5 655 1 120 -8 260 -18 286 -21 16 -2 63 -6 104
-10 41 -4 83 -9 93 -11 10 -2 48 -6 85 -10 36 -3 75 -8 87 -10 35 -7 68 -13
115 -19 25 -3 58 -8 73 -11 16 -3 38 -7 50 -9 12 -2 33 -6 47 -9 14 -3 39 -8
55 -11 168 -33 553 -142 650 -184 11 -4 47 -18 80 -30 33 -13 83 -32 110 -43
28 -12 64 -26 80 -33 17 -7 48 -21 70 -31 22 -10 42 -19 45 -19 3 0 49 -22
104 -48 54 -26 103 -47 107 -47 5 0 9 -4 9 -10 0 -5 6 -10 14 -10 7 0 46 -18
86 -40 40 -22 79 -40 86 -40 8 0 14 -4 14 -9 0 -5 18 -13 39 -19 50 -12 88 8
128 70 15 24 31 48 35 53 133 182 166 221 298 354 138 140 417 371 449 371 5
0 11 4 13 9 5 14 187 128 323 202 70 38 281 141 338 165 34 14 76 32 92 39 80
35 346 130 395 140 8 2 15 4 15 5 0 1 7 3 15 5 8 2 83 22 165 45 83 22 164 43
180 46 31 6 33 7 75 17 32 9 74 16 130 23 24 3 49 8 54 11 5 4 26 8 45 9 20 2
47 5 60 8 13 3 49 8 80 12 31 3 64 8 73 9 9 2 48 7 85 11 37 3 79 8 93 10 196
24 773 24 995 -1 28 -3 68 -8 90 -10 104 -10 153 -17 225 -29 96 -17 177 -30
190 -31 8 -1 22 -4 30 -8 8 -3 29 -8 45 -10 17 -3 41 -8 55 -11 23 -5 38 -9
88 -20 9 -2 37 -9 62 -16 25 -7 52 -14 60 -15 45 -10 210 -62 310 -97 267 -93
627 -262 859 -401 51 -32 95 -57 98 -57 2 0 9 -5 16 -10 18 -16 148 -99 179
-116 35 -18 45 -2 16 28 -13 13 -32 36 -43 52 -39 56 -365 439 -416 489 -16
15 -27 27 -24 27 3 0 -10 15 -28 34 -17 18 -75 80 -127 137 -180 195 -603 614
-805 794 -42 39 -90 81 -105 95 -67 61 -101 91 -200 174 -58 49 -107 92 -110
95 -3 4 -25 22 -50 41 -25 19 -47 37 -50 40 -3 3 -34 29 -70 58 -36 29 -73 60
-82 68 -10 7 -18 11 -18 7 0 -3 -8 3 -17 13 -21 22 -109 95 -133 109 -9 6 -35
24 -56 42 -21 18 -88 68 -149 113 -60 44 -118 87 -128 95 -9 8 -20 15 -23 15
-7 0 -88 63 -92 73 -2 4 -9 7 -16 7 -7 0 -24 9 -37 20 -42 36 -163 120 -173
120 -5 0 -16 8 -25 18 -9 9 -28 23 -43 31 -16 8 -28 18 -28 23 0 4 -5 8 -12 8
-12 0 -81 44 -106 67 -6 6 -21 15 -32 18 -11 3 -20 11 -20 16 0 5 -4 9 -9 9
-5 0 -36 17 -68 38 -32 21 -74 47 -93 58 -19 10 -43 27 -54 36 -10 9 -33 24
-50 33 -17 9 -43 24 -58 33 -14 9 -56 35 -93 57 -37 22 -82 48 -99 59 -147 87
-332 192 -466 264 -47 25 -98 53 -115 63 -16 9 -109 57 -205 105 -96 49 -176
92 -178 97 -2 4 -8 7 -14 7 -5 0 -62 25 -126 56 -65 32 -117 55 -118 53 0 -2
-9 2 -18 10 -10 8 -41 25 -69 37 -29 12 -144 63 -257 113 -210 94 -234 104
-272 120 -13 5 -39 16 -58 24 -19 9 -71 30 -115 47 -44 17 -93 37 -110 45 -39
17 -99 40 -105 40 -3 0 -14 6 -25 12 -11 6 -23 11 -28 12 -4 0 -23 8 -43 16
-20 8 -40 15 -44 15 -4 0 -29 9 -56 19 -27 11 -76 29 -109 41 -33 13 -69 26
-80 31 -44 17 -233 82 -280 96 -27 7 -57 18 -65 22 -12 6 -103 36 -142 47 -5
1 -10 3 -13 4 -5 3 -6 3 -50 15 -16 4 -34 10 -40 14 -5 3 -12 6 -15 6 -19 2
-107 30 -117 38 -7 5 -13 7 -13 3 0 -3 -17 0 -37 8 -51 19 -144 46 -363 106
-207 58 -300 67 -404 43 -33 -8 -68 -17 -76 -20 -18 -7 -28 -10 -60 -16 -14
-3 -45 -10 -70 -17 -25 -7 -46 -12 -47 -11 -2 0 -21 -6 -43 -14 -22 -8 -42
-14 -45 -15 -3 0 -6 0 -7 -1 -2 0 -10 -2 -18 -4 -38 -8 -105 -26 -225 -60 -71
-21 -143 -41 -160 -45 -16 -5 -45 -13 -62 -18 -18 -6 -33 -8 -33 -5 0 3 -6 1
-13 -5 -7 -6 -28 -14 -47 -17 -18 -3 -37 -8 -42 -11 -4 -3 -18 -7 -30 -10 -28
-6 -78 -20 -138 -39 -3 -1 -12 -5 -20 -8 -8 -4 -24 -8 -35 -10 -11 -2 -66 -18
-122 -36 -56 -17 -110 -34 -120 -36 -10 -2 -38 -11 -63 -20 -25 -9 -52 -18
-60 -20 -24 -5 -285 -90 -400 -130 -58 -20 -112 -38 -120 -40 -14 -3 -145 -49
-180 -62 -8 -3 -19 -7 -25 -9 -5 -1 -23 -7 -40 -14 -16 -6 -31 -11 -32 -11 -7
2 -149 -53 -157 -61 -6 -4 -16 -8 -22 -8 -7 0 -25 -5 -41 -12 -15 -6 -30 -12
-33 -12 -7 -2 -70 -26 -95 -37 -11 -5 -74 -29 -140 -54 -66 -25 -129 -50 -140
-55 -11 -5 -65 -27 -120 -49 -83 -32 -432 -180 -565 -239 -19 -9 -38 -15 -42
-14 -5 1 -8 -2 -8 -8 0 -5 -9 -10 -20 -10 -11 0 -20 -5 -20 -11 0 -5 -4 -8 -9
-4 -5 3 -12 1 -16 -5 -3 -5 -14 -10 -24 -10 -10 0 -24 -7 -31 -15 -6 -8 -15
-14 -18 -13 -9 2 -92 -35 -287 -129 -44 -21 -83 -37 -87 -35 -5 1 -8 -2 -8 -8
0 -5 -5 -10 -11 -10 -7 0 -130 -58 -274 -130 -144 -71 -267 -130 -273 -130 -6
0 -12 -4 -14 -9 -2 -4 -34 -24 -73 -43 -195 -98 -471 -244 -492 -261 -7 -5
-13 -6 -13 -1 0 5 -4 4 -8 -2 -4 -6 -29 -21 -57 -35 -27 -13 -52 -27 -55 -31
-6 -7 -63 -30 -69 -28 -2 1 -7 -3 -10 -8 -7 -11 -35 -27 -177 -103 -55 -28
-106 -57 -114 -63 -50 -38 -166 -59 -207 -38 -10 5 -43 22 -73 38 -105 53
-115 59 -118 67 -2 4 -12 7 -23 7 -10 0 -19 3 -19 8 0 4 -10 12 -23 18 -12 6
-53 28 -92 49 -38 21 -115 62 -170 92 -55 30 -108 59 -118 64 -10 5 -44 23
-75 40 -31 16 -64 34 -72 39 -8 6 -26 15 -40 20 -22 9 -82 41 -200 105 -19 11
-37 20 -40 20 -3 1 -48 23 -100 50 -170 87 -402 202 -545 270 -77 36 -176 84
-220 104 -97 46 -219 102 -325 148 -19 8 -53 23 -75 33 -22 11 -89 40 -150 66
-60 25 -130 55 -155 66 -24 11 -49 21 -55 22 -5 1 -14 4 -20 8 -11 6 -319 130
-430 172 -38 15 -80 31 -92 37 -42 17 -68 27 -103 39 -19 7 -44 16 -55 20 -11
5 -72 27 -135 50 -63 22 -122 43 -130 47 -8 3 -19 7 -25 9 -5 1 -82 28 -170
59 -88 31 -223 76 -300 101 -77 25 -147 49 -155 53 -13 7 -67 22 -90 26 -3 0
-9 3 -15 6 -9 6 -61 21 -77 23 -3 1 -10 4 -14 9 -4 4 -16 7 -26 7 -10 0 -26 4
-36 9 -9 5 -53 19 -97 31 -44 12 -89 26 -100 30 -21 8 -257 77 -355 104 -30 9
-86 24 -125 35 -80 23 -362 100 -385 105 -8 2 -42 11 -75 20 -33 9 -71 19 -85
22 -14 3 -66 16 -117 28 -82 21 -223 32 -236 19z"/>
</g>
</svg>
